<mxfile host="app.diagrams.net" modified="2025-01-19T18:52:36.542Z" agent="Mozilla/5.0 (Windows NT 10.0; Win64; x64; rv:134.0) Gecko/20100101 Firefox/134.0" version="24.4.13" etag="DrMuGoUhdyzLYRygtJN0" type="github">
  <diagram name="Страница — 1" id="cMZMibbOl_FNMLsdaaFT">
    <mxGraphModel>
      <root>
        <mxCell id="0" />
        <mxCell id="1" parent="0" />
      </root>
    </mxGraphModel>
  </diagram>
</mxfile>
